<?xml version="1.0" encoding="utf-8"?>
<!-- Generated by IcoMoon.io -->
<svg version="1.1" xmlns="http://www.w3.org/2000/svg" xmlns:xlink="http://www.w3.org/1999/xlink" width="752" height="32" viewBox="0 0 752 32">
<svg id="icon-arrow-right" width="16" height="16" viewBox="0 0 32 32" x="0" y="0">
<path d="M17.667 24.933l7.933-8c0.253-0.232 0.41-0.564 0.41-0.933s-0.158-0.701-0.409-0.932l-0.001-0.001-7.933-8c-0.252-0.247-0.598-0.399-0.979-0.399-0.308 0-0.594 0.1-0.825 0.269l0.004-0.003c-0.34 0.231-0.56 0.615-0.56 1.052 0 0.377 0.165 0.715 0.426 0.947l0.001 0.001 5.733 5.733h-14.133c-0.736 0-1.333 0.597-1.333 1.333s0.597 1.333 1.333 1.333v0h14.133l-5.733 5.733c-0.263 0.233-0.427 0.572-0.427 0.948 0 0.436 0.22 0.821 0.556 1.049l0.004 0.003c0.227 0.166 0.513 0.266 0.821 0.266 0.381 0 0.727-0.152 0.979-0.4l-0 0z"></path>
</svg>
<symbol id="icon-products-section-dots" viewBox="0 0 139 32">
<path fill="#fff" style="fill: var(--color1, #fff)" d="M85.333 16c0 8.837-7.163 16-16 16s-16-7.163-16-16c0-8.837 7.163-16 16-16s16 7.163 16 16z"></path>
<path fill="#fff" style="fill: var(--color1, #fff)" d="M32 16c0 8.837-7.163 16-16 16s-16-7.163-16-16c0-8.837 7.163-16 16-16s16 7.163 16 16z"></path>
<path fill="#fff" style="fill: var(--color1, #fff)" d="M138.667 16c0 8.837-7.163 16-16 16s-16-7.163-16-16c0-8.837 7.163-16 16-16s16 7.163 16 16z"></path>
</symbol>
</svg>
